<svg id="_x31__x2C_5" enable-background="new 0 0 24 24" height="512" viewBox="0 0 24 24" width="512" xmlns="http://www.w3.org/2000/svg"><path d="m20 19c-1.103 0-2-.897-2-2s.897-2 2-2 2 .897 2 2-.897 2-2 2zm0-2.5c-.275 0-.5.225-.5.5s.225.5.5.5.5-.225.5-.5-.225-.5-.5-.5z"/><path d="m23.25 24c-.414 0-.75-.336-.75-.75v-.5c0-.689-.561-1.25-1.25-1.25h-2.5c-.689 0-1.25.561-1.25 1.25v.5c0 .414-.336.75-.75.75s-.75-.336-.75-.75v-.5c0-1.517 1.233-2.75 2.75-2.75h2.5c1.517 0 2.75 1.233 2.75 2.75v.5c0 .414-.336.75-.75.75z"/><path d="m13.75 20h-11.5c-1.24 0-2.25-1.01-2.25-2.25v-8.5c0-1.24 1.01-2.25 2.25-2.25h11.5c1.24 0 2.25 1.01 2.25 2.25v8.5c0 1.24-1.01 2.25-2.25 2.25zm-11.5-11.5c-.413 0-.75.337-.75.75v8.5c0 .413.337.75.75.75h11.5c.413 0 .75-.337.75-.75v-8.5c0-.413-.337-.75-.75-.75z"/><path d="m12.25 8.5c-.414 0-.75-.336-.75-.75v-2.75c0-1.93-1.57-3.5-3.5-3.5s-3.5 1.57-3.5 3.5v2.75c0 .414-.336.75-.75.75s-.75-.336-.75-.75v-2.75c0-2.757 2.243-5 5-5s5 2.243 5 5v2.75c0 .414-.336.75-.75.75z"/></svg>